<?xml version="1.0" encoding="UTF-8"?>
<svg xmlns="http://www.w3.org/2000/svg" xmlns:xlink="http://www.w3.org/1999/xlink" width="169px" height="75px" viewBox="0 0 167 75" version="1.1">
  <g id="surface1">
    <path style=" stroke:none;fill-rule:nonzero;fill:rgb(100%,100%,100%);fill-opacity:1;" d="M 58.472656 0.203125 L 38.976562 0.203125 L 0 39.363281 L 0 55.214844 L 38.976562 55.214844 L 38.976562 74.796875 L 58.472656 74.796875 L 58.472656 39.363281 L 19.488281 39.363281 Z M 58.472656 0.203125 "></path>
    <path style=" stroke:none;fill-rule:nonzero;fill:rgb(100%,100%,100%);fill-opacity:1;" d="M 66.820312 19.785156 L 86.316406 0.203125 L 66.820312 0.203125 Z M 66.820312 19.785156 "></path>
    <path style=" stroke:none;fill-rule:nonzero;fill:rgb(100%,100%,100%);fill-opacity:1;" d="M 105.804688 19.785156 L 105.804688 0.203125 L 86.316406 0.203125 L 86.316406 19.785156 L 66.820312 39.363281 L 66.820312 58.949219 L 86.316406 58.949219 L 86.316406 39.363281 Z M 105.804688 19.785156 "></path>
    <path style=" stroke:none;fill-rule:nonzero;fill:rgb(100%,100%,100%);fill-opacity:1;" d="M 105.804688 39.363281 L 86.316406 58.949219 L 105.804688 58.949219 Z M 105.804688 39.363281 "></path>
    <path style=" stroke:none;fill-rule:nonzero;fill:rgb(100%,100%,100%);fill-opacity:1;" d="M 124.628906 39.425781 L 126.167969 39.425781 L 126.167969 58.894531 L 124.628906 58.894531 Z M 124.628906 39.425781 "></path>
    <path style=" stroke:none;fill-rule:nonzero;fill:rgb(100%,100%,100%);fill-opacity:1;" d="M 133.800781 53.808594 L 135.078125 43.5 L 137.140625 43.5 L 141.863281 50.207031 L 142.695312 43.5 L 145.066406 43.5 L 143.804688 53.808594 L 141.742188 53.808594 L 136.988281 47.070312 L 136.171875 53.808594 Z M 133.800781 53.808594 "></path>
    <path style=" stroke:none;fill-rule:nonzero;fill:rgb(100%,100%,100%);fill-opacity:1;" d="M 149.726562 43.5 L 148.464844 53.808594 L 146.097656 53.808594 L 147.359375 43.5 Z M 149.726562 43.5 "></path>
    <path style=" stroke:none;fill-rule:nonzero;fill:rgb(100%,100%,100%);fill-opacity:1;" d="M 158.414062 53.484375 C 158.074219 53.65625 157.246094 54.042969 155.921875 54.042969 C 153.980469 54.042969 152.859375 53.207031 152.304688 52.664062 C 151.644531 52 150.921875 50.886719 150.921875 49.09375 C 150.921875 47.300781 151.597656 45.832031 152.550781 44.875 C 153.414062 44.007812 154.78125 43.265625 156.660156 43.265625 C 158.246094 43.265625 159.199219 43.792969 159.566406 44.007812 L 159.277344 46.527344 C 158.859375 46.109375 158.074219 45.492188 156.707031 45.492188 C 155.722656 45.492188 154.921875 45.753906 154.273438 46.464844 C 153.644531 47.148438 153.351562 48.074219 153.351562 48.894531 C 153.351562 49.757812 153.691406 50.546875 154.152344 51.011719 C 154.613281 51.476562 155.382812 51.816406 156.320312 51.816406 C 157.335938 51.816406 158.152344 51.382812 158.722656 50.917969 Z M 158.414062 53.484375 "></path>
    <path style=" stroke:none;fill-rule:nonzero;fill:rgb(100%,100%,100%);fill-opacity:1;" d="M 166.753906 45.507812 L 163.398438 45.507812 L 163.152344 47.503906 L 166.382812 47.503906 L 166.136719 49.511719 L 162.90625 49.511719 L 162.628906 51.800781 L 166.046875 51.800781 L 165.800781 53.808594 L 160.074219 53.808594 L 161.335938 43.5 L 167 43.5 Z M 166.753906 45.507812 "></path>
  </g>
</svg>
